<mxfile host="app.diagrams.net" modified="2024-02-07T15:33:43.493Z" agent="Mozilla/5.0 (Windows NT 10.0; Win64; x64) AppleWebKit/537.36 (KHTML, like Gecko) Chrome/121.0.0.0 Safari/537.36" etag="OTVJx58jGwfosdlQHaky" version="23.1.1" type="device">
  <diagram name="Page-1" id="5f0bae14-7c28-e335-631c-24af17079c00">
    <mxGraphModel dx="1116" dy="569" grid="1" gridSize="13" guides="1" tooltips="1" connect="1" arrows="1" fold="1" page="1" pageScale="1" pageWidth="1100" pageHeight="850" background="none" math="0" shadow="0">
      <root>
        <mxCell id="0" />
        <mxCell id="1" parent="0" />
        <mxCell id="39150e848f15840c-1" value="&lt;br&gt;«device»&lt;br style=&quot;border-color: var(--border-color);&quot;&gt;Admin: Client" style="verticalAlign=top;align=center;spacingTop=8;spacingLeft=2;spacingRight=12;shape=cube;size=10;direction=south;fontStyle=4;html=1;rounded=0;shadow=0;comic=0;labelBackgroundColor=none;strokeWidth=1;fontFamily=Verdana;fontSize=12" parent="1" vertex="1">
          <mxGeometry x="10" y="40" width="210" height="430" as="geometry" />
        </mxCell>
        <mxCell id="39150e848f15840c-4" value="«component»&lt;br&gt;&lt;b style=&quot;border-color: var(--border-color);&quot;&gt;interfaccia&lt;br style=&quot;border-color: var(--border-color);&quot;&gt;login/registrazione&lt;/b&gt;" style="html=1;rounded=0;shadow=0;comic=0;labelBackgroundColor=none;strokeWidth=1;fontFamily=Verdana;fontSize=12;align=center;" parent="1" vertex="1">
          <mxGeometry x="40" y="120" width="150" height="57" as="geometry" />
        </mxCell>
        <mxCell id="39150e848f15840c-18" style="edgeStyle=orthogonalEdgeStyle;rounded=0;html=1;labelBackgroundColor=none;startArrow=none;startFill=0;startSize=8;endArrow=none;endFill=0;endSize=16;fontFamily=Verdana;fontSize=12;entryX=1;entryY=0.5;entryDx=0;entryDy=0;exitX=0;exitY=1;exitDx=0;exitDy=0;" parent="1" source="vJw2Q9mPqwAH0VsKbbBc-45" target="39150e848f15840c-4" edge="1">
          <mxGeometry relative="1" as="geometry">
            <Array as="points">
              <mxPoint x="888" y="559" />
              <mxPoint x="247" y="559" />
              <mxPoint x="247" y="149" />
            </Array>
            <mxPoint x="936" y="559" as="sourcePoint" />
            <mxPoint x="190" y="143" as="targetPoint" />
          </mxGeometry>
        </mxCell>
        <mxCell id="vJw2Q9mPqwAH0VsKbbBc-8" value="«component»&lt;br&gt;&lt;b&gt;visualizzazione dati&lt;/b&gt;" style="html=1;rounded=0;shadow=0;comic=0;labelBackgroundColor=none;strokeWidth=1;fontFamily=Verdana;fontSize=12;align=center;" parent="1" vertex="1">
          <mxGeometry x="40" y="330" width="150" height="50" as="geometry" />
        </mxCell>
        <mxCell id="vJw2Q9mPqwAH0VsKbbBc-9" value="«component»&lt;br&gt;&lt;b&gt;fornisce credenziali&lt;/b&gt;" style="html=1;rounded=0;shadow=0;comic=0;labelBackgroundColor=none;strokeWidth=1;fontFamily=Verdana;fontSize=12;align=center;" parent="1" vertex="1">
          <mxGeometry x="40" y="260" width="150" height="50" as="geometry" />
        </mxCell>
        <mxCell id="vJw2Q9mPqwAH0VsKbbBc-10" value="«component»&lt;br&gt;&lt;b&gt;gestione news&lt;/b&gt;" style="html=1;rounded=0;shadow=0;comic=0;labelBackgroundColor=none;strokeWidth=1;fontFamily=Verdana;fontSize=12;align=center;" parent="1" vertex="1">
          <mxGeometry x="40" y="193" width="150" height="50" as="geometry" />
        </mxCell>
        <mxCell id="vJw2Q9mPqwAH0VsKbbBc-16" value="«component»&lt;br&gt;&lt;b&gt;interfaccia admin&lt;/b&gt;" style="html=1;rounded=0;shadow=0;comic=0;labelBackgroundColor=none;strokeWidth=1;fontFamily=Verdana;fontSize=12;align=center;" parent="1" vertex="1">
          <mxGeometry x="40" y="400" width="150" height="50" as="geometry" />
        </mxCell>
        <mxCell id="vJw2Q9mPqwAH0VsKbbBc-23" value="&lt;br&gt;«device»&lt;br style=&quot;border-color: var(--border-color);&quot;&gt;Utente: Client" style="verticalAlign=top;align=center;spacingTop=8;spacingLeft=2;spacingRight=12;shape=cube;size=10;direction=south;fontStyle=4;html=1;rounded=0;shadow=0;comic=0;labelBackgroundColor=none;strokeWidth=1;fontFamily=Verdana;fontSize=12" parent="1" vertex="1">
          <mxGeometry x="290" y="40" width="210" height="363" as="geometry" />
        </mxCell>
        <mxCell id="vJw2Q9mPqwAH0VsKbbBc-24" value="«component»&lt;br&gt;&lt;b style=&quot;border-color: var(--border-color);&quot;&gt;interfaccia&lt;br style=&quot;border-color: var(--border-color);&quot;&gt;login/registrazione&lt;/b&gt;" style="html=1;rounded=0;shadow=0;comic=0;labelBackgroundColor=none;strokeWidth=1;fontFamily=Verdana;fontSize=12;align=center;" parent="1" vertex="1">
          <mxGeometry x="320" y="120" width="150" height="57" as="geometry" />
        </mxCell>
        <mxCell id="vJw2Q9mPqwAH0VsKbbBc-26" value="«component»&lt;br&gt;&lt;b&gt;visualizzazione dati&lt;/b&gt;" style="html=1;rounded=0;shadow=0;comic=0;labelBackgroundColor=none;strokeWidth=1;fontFamily=Verdana;fontSize=12;align=center;" parent="1" vertex="1">
          <mxGeometry x="320" y="260" width="150" height="50" as="geometry" />
        </mxCell>
        <mxCell id="vJw2Q9mPqwAH0VsKbbBc-27" value="«component»&lt;br&gt;&lt;b&gt;effettua commenti&lt;/b&gt;" style="html=1;rounded=0;shadow=0;comic=0;labelBackgroundColor=none;strokeWidth=1;fontFamily=Verdana;fontSize=12;align=center;" parent="1" vertex="1">
          <mxGeometry x="320" y="190" width="150" height="50" as="geometry" />
        </mxCell>
        <mxCell id="vJw2Q9mPqwAH0VsKbbBc-28" value="«component»&lt;br&gt;&lt;b&gt;interfaccia utente&lt;/b&gt;" style="html=1;rounded=0;shadow=0;comic=0;labelBackgroundColor=none;strokeWidth=1;fontFamily=Verdana;fontSize=12;align=center;" parent="1" vertex="1">
          <mxGeometry x="320" y="330" width="150" height="50" as="geometry" />
        </mxCell>
        <mxCell id="vJw2Q9mPqwAH0VsKbbBc-29" value="&lt;br&gt;«device»&lt;br style=&quot;border-color: var(--border-color);&quot;&gt;Giornalista: Client" style="verticalAlign=top;align=center;spacingTop=8;spacingLeft=2;spacingRight=12;shape=cube;size=10;direction=south;fontStyle=4;html=1;rounded=0;shadow=0;comic=0;labelBackgroundColor=none;strokeWidth=1;fontFamily=Verdana;fontSize=12" parent="1" vertex="1">
          <mxGeometry x="580" y="40" width="210" height="360" as="geometry" />
        </mxCell>
        <mxCell id="vJw2Q9mPqwAH0VsKbbBc-30" value="«component»&lt;br&gt;&lt;b&gt;interfaccia&lt;br&gt;login/registrazione&lt;/b&gt;" style="html=1;rounded=0;shadow=0;comic=0;labelBackgroundColor=none;strokeWidth=1;fontFamily=Verdana;fontSize=12;align=center;" parent="1" vertex="1">
          <mxGeometry x="610" y="120" width="150" height="57" as="geometry" />
        </mxCell>
        <mxCell id="vJw2Q9mPqwAH0VsKbbBc-31" value="«component»&lt;br&gt;&lt;b&gt;visualizzazione dati&lt;/b&gt;" style="html=1;rounded=0;shadow=0;comic=0;labelBackgroundColor=none;strokeWidth=1;fontFamily=Verdana;fontSize=12;align=center;" parent="1" vertex="1">
          <mxGeometry x="610" y="260" width="150" height="50" as="geometry" />
        </mxCell>
        <mxCell id="vJw2Q9mPqwAH0VsKbbBc-33" value="«component»&lt;br&gt;&lt;b&gt;gestione news&lt;/b&gt;" style="html=1;rounded=0;shadow=0;comic=0;labelBackgroundColor=none;strokeWidth=1;fontFamily=Verdana;fontSize=12;align=center;" parent="1" vertex="1">
          <mxGeometry x="610" y="191" width="150" height="50" as="geometry" />
        </mxCell>
        <mxCell id="vJw2Q9mPqwAH0VsKbbBc-34" value="«component»&lt;br&gt;&lt;b&gt;interfaccia&lt;br&gt;giornalista&lt;/b&gt;" style="html=1;rounded=0;shadow=0;comic=0;labelBackgroundColor=none;strokeWidth=1;fontFamily=Verdana;fontSize=12;align=center;" parent="1" vertex="1">
          <mxGeometry x="610" y="329" width="150" height="57" as="geometry" />
        </mxCell>
        <mxCell id="vJw2Q9mPqwAH0VsKbbBc-35" value="&lt;br&gt;«device»&lt;br style=&quot;border-color: var(--border-color);&quot;&gt;Server" style="verticalAlign=top;align=center;spacingTop=8;spacingLeft=2;spacingRight=12;shape=cube;size=10;direction=south;fontStyle=4;html=1;rounded=0;shadow=0;comic=0;labelBackgroundColor=none;strokeWidth=1;fontFamily=Verdana;fontSize=12" parent="1" vertex="1">
          <mxGeometry x="870" y="50" width="210" height="145" as="geometry" />
        </mxCell>
        <mxCell id="vJw2Q9mPqwAH0VsKbbBc-36" value="«component»&lt;br&gt;&lt;b&gt;database&lt;/b&gt;" style="html=1;rounded=0;shadow=0;comic=0;labelBackgroundColor=none;strokeWidth=1;fontFamily=Verdana;fontSize=12;align=center;" parent="1" vertex="1">
          <mxGeometry x="900" y="125" width="150" height="50" as="geometry" />
        </mxCell>
        <mxCell id="vJw2Q9mPqwAH0VsKbbBc-40" style="edgeStyle=orthogonalEdgeStyle;rounded=0;html=1;labelBackgroundColor=none;startArrow=none;startFill=0;startSize=8;endArrow=none;endFill=0;endSize=16;fontFamily=Verdana;fontSize=12;entryX=1;entryY=0.5;entryDx=0;entryDy=0;exitX=0;exitY=0.5;exitDx=0;exitDy=0;" parent="1" source="vJw2Q9mPqwAH0VsKbbBc-45" target="vJw2Q9mPqwAH0VsKbbBc-24" edge="1">
          <mxGeometry relative="1" as="geometry">
            <Array as="points">
              <mxPoint x="533" y="546" />
              <mxPoint x="533" y="145" />
            </Array>
            <mxPoint x="936" y="546" as="sourcePoint" />
            <mxPoint x="470" y="-26" as="targetPoint" />
          </mxGeometry>
        </mxCell>
        <mxCell id="vJw2Q9mPqwAH0VsKbbBc-41" style="edgeStyle=orthogonalEdgeStyle;rounded=0;html=1;labelBackgroundColor=none;startArrow=none;startFill=0;startSize=8;endArrow=none;endFill=0;endSize=16;fontFamily=Verdana;fontSize=12;entryX=1;entryY=0.5;entryDx=0;entryDy=0;exitX=0;exitY=0;exitDx=0;exitDy=0;" parent="1" source="vJw2Q9mPqwAH0VsKbbBc-45" target="vJw2Q9mPqwAH0VsKbbBc-30" edge="1">
          <mxGeometry relative="1" as="geometry">
            <Array as="points">
              <mxPoint x="845" y="537" />
              <mxPoint x="845" y="145" />
              <mxPoint x="760" y="145" />
            </Array>
            <mxPoint x="936" y="533" as="sourcePoint" />
            <mxPoint x="760" y="-26" as="targetPoint" />
          </mxGeometry>
        </mxCell>
        <mxCell id="vJw2Q9mPqwAH0VsKbbBc-45" value="" style="ellipse;whiteSpace=wrap;html=1;aspect=fixed;" parent="1" vertex="1">
          <mxGeometry x="884" y="533" width="26" height="26" as="geometry" />
        </mxCell>
        <mxCell id="vJw2Q9mPqwAH0VsKbbBc-48" style="edgeStyle=orthogonalEdgeStyle;rounded=0;html=1;labelBackgroundColor=none;startArrow=none;startFill=0;startSize=8;endArrow=none;endFill=0;endSize=16;fontFamily=Verdana;fontSize=12;entryX=1;entryY=0.5;entryDx=0;entryDy=0;exitX=1.007;exitY=0.746;exitDx=0;exitDy=0;exitPerimeter=0;" parent="1" source="vJw2Q9mPqwAH0VsKbbBc-35" target="vJw2Q9mPqwAH0VsKbbBc-45" edge="1">
          <mxGeometry relative="1" as="geometry">
            <Array as="points">
              <mxPoint x="923" y="221" />
              <mxPoint x="923" y="546" />
            </Array>
            <mxPoint x="936" y="247" as="sourcePoint" />
            <mxPoint x="773" y="158" as="targetPoint" />
          </mxGeometry>
        </mxCell>
        <mxCell id="vJw2Q9mPqwAH0VsKbbBc-50" style="edgeStyle=orthogonalEdgeStyle;rounded=0;html=1;labelBackgroundColor=none;startArrow=none;startFill=0;startSize=8;endArrow=none;endFill=0;endSize=16;fontFamily=Verdana;fontSize=12;entryX=1;entryY=0.75;entryDx=0;entryDy=0;exitX=1;exitY=1;exitDx=0;exitDy=0;" parent="1" source="vJw2Q9mPqwAH0VsKbbBc-58" target="vJw2Q9mPqwAH0VsKbbBc-10" edge="1">
          <mxGeometry relative="1" as="geometry">
            <Array as="points">
              <mxPoint x="958" y="646" />
              <mxPoint x="943" y="646" />
              <mxPoint x="943" y="650" />
              <mxPoint x="276" y="650" />
              <mxPoint x="276" y="221" />
              <mxPoint x="190" y="221" />
            </Array>
            <mxPoint x="942.497611844575" y="646.1923881554251" as="sourcePoint" />
            <mxPoint x="192.69" y="231" as="targetPoint" />
          </mxGeometry>
        </mxCell>
        <mxCell id="vJw2Q9mPqwAH0VsKbbBc-52" value="controllo&lt;br&gt;login/&lt;br&gt;registrazione" style="text;html=1;align=center;verticalAlign=middle;resizable=0;points=[];autosize=1;strokeColor=none;fillColor=none;" parent="1" vertex="1">
          <mxGeometry x="839" y="466" width="91" height="52" as="geometry" />
        </mxCell>
        <mxCell id="vJw2Q9mPqwAH0VsKbbBc-57" style="edgeStyle=orthogonalEdgeStyle;rounded=0;html=1;labelBackgroundColor=none;startArrow=none;startFill=0;startSize=8;endArrow=none;endFill=0;endSize=16;fontFamily=Verdana;fontSize=12;exitX=1.06;exitY=0.923;exitDx=0;exitDy=0;exitPerimeter=0;entryX=1;entryY=0.5;entryDx=0;entryDy=0;" parent="1" source="vJw2Q9mPqwAH0VsKbbBc-60" target="vJw2Q9mPqwAH0VsKbbBc-33" edge="1">
          <mxGeometry relative="1" as="geometry">
            <Array as="points">
              <mxPoint x="955" y="633" />
              <mxPoint x="819" y="633" />
              <mxPoint x="819" y="221" />
              <mxPoint x="760" y="221" />
            </Array>
            <mxPoint x="935.9976118445747" y="649.9976118445747" as="sourcePoint" />
            <mxPoint x="767" y="221" as="targetPoint" />
          </mxGeometry>
        </mxCell>
        <mxCell id="vJw2Q9mPqwAH0VsKbbBc-58" value="" style="ellipse;whiteSpace=wrap;html=1;aspect=fixed;" parent="1" vertex="1">
          <mxGeometry x="936" y="625" width="26" height="26" as="geometry" />
        </mxCell>
        <mxCell id="vJw2Q9mPqwAH0VsKbbBc-59" style="edgeStyle=orthogonalEdgeStyle;rounded=0;html=1;labelBackgroundColor=none;startArrow=none;startFill=0;startSize=8;endArrow=none;endFill=0;endSize=16;fontFamily=Verdana;fontSize=12;exitX=1;exitY=0.5;exitDx=0;exitDy=0;entryX=1.001;entryY=0.503;entryDx=0;entryDy=0;entryPerimeter=0;" parent="1" source="vJw2Q9mPqwAH0VsKbbBc-58" target="vJw2Q9mPqwAH0VsKbbBc-35" edge="1">
          <mxGeometry relative="1" as="geometry">
            <Array as="points">
              <mxPoint x="974" y="637" />
            </Array>
            <mxPoint x="953" y="628" as="sourcePoint" />
            <mxPoint x="975" y="221" as="targetPoint" />
          </mxGeometry>
        </mxCell>
        <mxCell id="vJw2Q9mPqwAH0VsKbbBc-61" style="edgeStyle=orthogonalEdgeStyle;rounded=0;html=1;labelBackgroundColor=none;startArrow=none;startFill=0;startSize=8;endArrow=none;endFill=0;endSize=16;fontFamily=Verdana;fontSize=12;entryX=1;entryY=0.5;entryDx=0;entryDy=0;exitX=0;exitY=0.5;exitDx=0;exitDy=0;" parent="1" source="vJw2Q9mPqwAH0VsKbbBc-62" target="vJw2Q9mPqwAH0VsKbbBc-26" edge="1">
          <mxGeometry relative="1" as="geometry">
            <Array as="points">
              <mxPoint x="962" y="728" />
              <mxPoint x="559" y="728" />
              <mxPoint x="559" y="282" />
              <mxPoint x="470" y="282" />
            </Array>
            <mxPoint x="962" y="685" as="sourcePoint" />
            <mxPoint x="470" y="281" as="targetPoint" />
          </mxGeometry>
        </mxCell>
        <mxCell id="vJw2Q9mPqwAH0VsKbbBc-63" style="edgeStyle=orthogonalEdgeStyle;rounded=0;html=1;labelBackgroundColor=none;startArrow=none;startFill=0;startSize=8;endArrow=none;endFill=0;endSize=16;fontFamily=Verdana;fontSize=12;exitX=1;exitY=0.5;exitDx=0;exitDy=0;entryX=0.999;entryY=0.249;entryDx=0;entryDy=0;entryPerimeter=0;" parent="1" target="vJw2Q9mPqwAH0VsKbbBc-35" edge="1" source="vJw2Q9mPqwAH0VsKbbBc-62">
          <mxGeometry relative="1" as="geometry">
            <Array as="points">
              <mxPoint x="1027" y="198" />
              <mxPoint x="1028" y="198" />
            </Array>
            <mxPoint x="1001" y="689" as="sourcePoint" />
            <mxPoint x="1014" y="247" as="targetPoint" />
          </mxGeometry>
        </mxCell>
        <mxCell id="vJw2Q9mPqwAH0VsKbbBc-64" value="visualizzazione&lt;br&gt;driver&lt;br&gt;team&lt;br&gt;schedule&lt;br&gt;standings&lt;br&gt;news" style="text;html=1;align=center;verticalAlign=middle;resizable=0;points=[];autosize=1;strokeColor=none;fillColor=none;" parent="1" vertex="1">
          <mxGeometry x="923" y="744" width="104" height="104" as="geometry" />
        </mxCell>
        <mxCell id="UsAZg_VlgxNsvnoTSgb_-3" style="edgeStyle=orthogonalEdgeStyle;rounded=0;html=1;labelBackgroundColor=none;startArrow=none;startFill=0;startSize=8;endArrow=none;endFill=0;endSize=16;fontFamily=Verdana;fontSize=12;exitX=0.5;exitY=1;exitDx=0;exitDy=0;" edge="1" parent="1" source="vJw2Q9mPqwAH0VsKbbBc-62">
          <mxGeometry relative="1" as="geometry">
            <Array as="points">
              <mxPoint x="481" y="739" />
              <mxPoint x="481" y="507" />
              <mxPoint x="260" y="507" />
              <mxPoint x="260" y="351" />
              <mxPoint x="190" y="351" />
            </Array>
            <mxPoint x="975" y="739" as="sourcePoint" />
            <mxPoint x="190" y="364" as="targetPoint" />
          </mxGeometry>
        </mxCell>
        <mxCell id="vJw2Q9mPqwAH0VsKbbBc-62" value="" style="ellipse;whiteSpace=wrap;html=1;aspect=fixed;" parent="1" vertex="1">
          <mxGeometry x="962" y="713" width="26" height="26" as="geometry" />
        </mxCell>
        <mxCell id="UsAZg_VlgxNsvnoTSgb_-6" value="" style="edgeStyle=orthogonalEdgeStyle;rounded=0;html=1;labelBackgroundColor=none;startArrow=none;startFill=0;startSize=8;endArrow=none;endFill=0;endSize=16;fontFamily=Verdana;fontSize=12;exitX=0.5;exitY=0;exitDx=0;exitDy=0;" edge="1" parent="1" source="vJw2Q9mPqwAH0VsKbbBc-62">
          <mxGeometry relative="1" as="geometry">
            <Array as="points">
              <mxPoint x="804" y="713" />
              <mxPoint x="804" y="286" />
              <mxPoint x="760" y="286" />
            </Array>
            <mxPoint x="1001" y="713" as="sourcePoint" />
            <mxPoint x="760" y="286" as="targetPoint" />
          </mxGeometry>
        </mxCell>
        <mxCell id="vJw2Q9mPqwAH0VsKbbBc-60" value="inserimento&lt;br&gt;modifica&lt;br&gt;rimozione&lt;br&gt;news" style="text;html=1;align=center;verticalAlign=middle;resizable=0;points=[];autosize=1;strokeColor=none;fillColor=none;" parent="1" vertex="1">
          <mxGeometry x="858.5" y="559" width="91" height="78" as="geometry" />
        </mxCell>
        <mxCell id="UsAZg_VlgxNsvnoTSgb_-9" style="edgeStyle=orthogonalEdgeStyle;rounded=0;html=1;labelBackgroundColor=none;startArrow=none;startFill=0;startSize=8;endArrow=none;endFill=0;endSize=16;fontFamily=Verdana;fontSize=12;entryX=1;entryY=0.5;entryDx=0;entryDy=0;" edge="1" parent="1">
          <mxGeometry relative="1" as="geometry">
            <Array as="points">
              <mxPoint x="604" y="468" />
              <mxPoint x="234" y="468" />
              <mxPoint x="234" y="286" />
              <mxPoint x="190" y="286" />
            </Array>
            <mxPoint x="604" y="468" as="sourcePoint" />
            <mxPoint x="190" y="290" as="targetPoint" />
          </mxGeometry>
        </mxCell>
        <mxCell id="UsAZg_VlgxNsvnoTSgb_-10" value="" style="ellipse;whiteSpace=wrap;html=1;aspect=fixed;" vertex="1" parent="1">
          <mxGeometry x="598" y="455" width="26" height="26" as="geometry" />
        </mxCell>
        <mxCell id="UsAZg_VlgxNsvnoTSgb_-11" value="inserimento&lt;br&gt;giornalista" style="text;html=1;align=center;verticalAlign=middle;resizable=0;points=[];autosize=1;strokeColor=none;fillColor=none;" vertex="1" parent="1">
          <mxGeometry x="564" y="488" width="91" height="39" as="geometry" />
        </mxCell>
        <mxCell id="UsAZg_VlgxNsvnoTSgb_-12" style="edgeStyle=orthogonalEdgeStyle;rounded=0;html=1;labelBackgroundColor=none;startArrow=none;startFill=0;startSize=8;endArrow=none;endFill=0;endSize=16;fontFamily=Verdana;fontSize=12;entryX=1;entryY=0.5;entryDx=0;entryDy=0;" edge="1" parent="1">
          <mxGeometry relative="1" as="geometry">
            <Array as="points">
              <mxPoint x="949" y="197" />
              <mxPoint x="949" y="429" />
              <mxPoint x="668" y="429" />
              <mxPoint x="668" y="467" />
              <mxPoint x="624" y="467" />
            </Array>
            <mxPoint x="949" y="197" as="sourcePoint" />
            <mxPoint x="624" y="471" as="targetPoint" />
          </mxGeometry>
        </mxCell>
        <mxCell id="UsAZg_VlgxNsvnoTSgb_-13" style="edgeStyle=orthogonalEdgeStyle;rounded=0;html=1;labelBackgroundColor=none;startArrow=none;startFill=0;startSize=8;endArrow=none;endFill=0;endSize=16;fontFamily=Verdana;fontSize=12;entryX=1;entryY=0.5;entryDx=0;entryDy=0;" edge="1" parent="1" source="UsAZg_VlgxNsvnoTSgb_-14">
          <mxGeometry relative="1" as="geometry">
            <Array as="points">
              <mxPoint x="514" y="218" />
              <mxPoint x="470" y="218" />
            </Array>
            <mxPoint x="728" y="598" as="sourcePoint" />
            <mxPoint x="470" y="222" as="targetPoint" />
          </mxGeometry>
        </mxCell>
        <mxCell id="UsAZg_VlgxNsvnoTSgb_-14" value="" style="ellipse;whiteSpace=wrap;html=1;aspect=fixed;" vertex="1" parent="1">
          <mxGeometry x="637" y="573" width="26" height="26" as="geometry" />
        </mxCell>
        <mxCell id="UsAZg_VlgxNsvnoTSgb_-16" value="inserimento&lt;br&gt;commento" style="text;html=1;align=center;verticalAlign=middle;resizable=0;points=[];autosize=1;strokeColor=none;fillColor=none;" vertex="1" parent="1">
          <mxGeometry x="604.5" y="602" width="91" height="39" as="geometry" />
        </mxCell>
        <mxCell id="UsAZg_VlgxNsvnoTSgb_-18" style="edgeStyle=orthogonalEdgeStyle;rounded=0;html=1;labelBackgroundColor=none;startArrow=none;startFill=0;startSize=8;endArrow=none;endFill=0;endSize=16;fontFamily=Verdana;fontSize=12;entryX=1;entryY=0.5;entryDx=0;entryDy=0;" edge="1" parent="1">
          <mxGeometry relative="1" as="geometry">
            <Array as="points">
              <mxPoint x="707" y="585" />
              <mxPoint x="663" y="585" />
            </Array>
            <mxPoint x="1001" y="689" as="sourcePoint" />
            <mxPoint x="663" y="589" as="targetPoint" />
          </mxGeometry>
        </mxCell>
        <mxCell id="UsAZg_VlgxNsvnoTSgb_-19" style="edgeStyle=orthogonalEdgeStyle;rounded=0;html=1;labelBackgroundColor=none;startArrow=none;startFill=0;startSize=8;endArrow=none;endFill=0;endSize=16;fontFamily=Verdana;fontSize=12;" edge="1" parent="1">
          <mxGeometry relative="1" as="geometry">
            <Array as="points">
              <mxPoint x="1001" y="200" />
              <mxPoint x="1001" y="200" />
              <mxPoint x="1001" y="689" />
            </Array>
            <mxPoint x="1001" y="195" as="sourcePoint" />
            <mxPoint x="832" y="689" as="targetPoint" />
          </mxGeometry>
        </mxCell>
      </root>
    </mxGraphModel>
  </diagram>
</mxfile>
